<?xml version="1.0" ?><svg version="1.1" viewBox="0 0 141.332992553711 141.332992553711" xmlns="http://www.w3.org/2000/svg" xmlns:xlink="http://www.w3.org/1999/xlink"><defs><linearGradient id="def0" x1="0.500005" x2="0.500004" y1="1" y2="4.64241E-06"><stop offset="0" stop-color="#0066CC"/><stop offset="1" stop-color="#99CCFF"/></linearGradient></defs><g><path d="M17.3333,0C7.76,0,0,7.75999,0,17.3333L0,124C0,133.573,7.76,141.333,17.3333,141.333L124,141.333C133.573,141.333,141.333,133.573,141.333,124L141.333,17.3333C141.333,7.75999,133.573,0,124,0L17.3333,0z" fill="url(#def0)"/><path d="M26.732,48.7253L44.8293,48.7253 44.8293,106.945 26.732,106.945 M45.4253,32.5333C45.4253,37.5333 41.6147,41.5827 35.6627,41.5827 29.9467,41.5827 26.1373,37.5333 26.256,32.5333 26.1373,27.2947 29.9467,23.3653 35.7813,23.3653 41.6147,23.3653 45.3053,27.2947 45.4253,32.5333z" fill="#FFFFFF"/><path d="M59.3541,67.2988C59.3541,60.0361,59.1168,53.8455,58.8781,48.7255L74.5941,48.7255 75.4275,56.7028 75.7848,56.7028C78.1648,53.0121 84.1181,47.4148 93.7635,47.4148 105.667,47.4148 114.598,55.2735 114.598,72.4175L114.598,106.945 96.5008,106.945 96.5008,74.6801C96.5008,67.1801 93.8821,62.0601 87.3328,62.0601 82.3328,62.0601 79.3568,65.5135 78.1648,68.8468 77.6901,69.9175 77.4515,71.7028 77.4515,73.3708L77.4515,106.945 59.3541,106.945 59.3541,67.2988z" fill="#FFFFFF"/></g></svg>