<?xml version="1.0" encoding="UTF-8" standalone="no"?>
<svg
   xmlns:dc="http://purl.org/dc/elements/1.1/"
   xmlns:cc="http://creativecommons.org/ns#"
   xmlns:rdf="http://www.w3.org/1999/02/22-rdf-syntax-ns#"
   xmlns:svg="http://www.w3.org/2000/svg"
   xmlns="http://www.w3.org/2000/svg"
   xmlns:sodipodi="http://sodipodi.sourceforge.net/DTD/sodipodi-0.dtd"
   xmlns:inkscape="http://www.inkscape.org/namespaces/inkscape"
   inkscape:version="1.0beta1 (32d4812, 2019-09-19)"
   sodipodi:docname="scava.svg"
   id="svg159"
   version="1.1"
   viewBox="0 0 1550.072 1550.0715"
   height="1550.0715mm"
   width="1550.072mm">
  <metadata
     id="metadata22">
    <rdf:RDF>
      <cc:Work
         rdf:about="">
        <dc:format>image/svg+xml</dc:format>
        <dc:type
           rdf:resource="http://purl.org/dc/dcmitype/StillImage" />
        <dc:title></dc:title>
      </cc:Work>
    </rdf:RDF>
  </metadata>
  <defs
     id="defs20" />
  <sodipodi:namedview
     inkscape:current-layer="svg159"
     inkscape:window-maximized="0"
     inkscape:window-y="23"
     inkscape:window-x="0"
     inkscape:cy="2886.2772"
     inkscape:cx="2886.9542"
     inkscape:zoom="0.067315677"
     showgrid="false"
     id="namedview18"
     inkscape:window-height="805"
     inkscape:window-width="1440"
     inkscape:pageshadow="2"
     inkscape:pageopacity="0"
     guidetolerance="10"
     gridtolerance="10"
     objecttolerance="10"
     borderopacity="1"
     inkscape:document-rotation="0"
     bordercolor="#666666"
     pagecolor="#ffffff" />
  <g
     style="display:inline"
     id="layer2">
    <g
       id="g51">
      <path
         transform="translate(635.18481,648.88099)"
         style="display:inline;fill:#ffffff;fill-opacity:1;stroke-width:7.05555582"
         d="m 914.88719,707.43221 c 0,106.5678 -87.1915,193.7583 -193.7591,193.7583 H -441.42576 c -106.5674,0 -193.75902,-87.1905 -193.75902,-193.7583 V -455.12174 c 0,-106.56782 87.19162,-193.75925 193.75902,-193.75925 H 721.12809 c 106.5676,0 193.7591,87.19143 193.7591,193.75925 z"
         id="path8-6-8" />
    </g>
    <g
       id="g48" />
    <g
       id="g43" />
  </g>
  <g
     style="opacity:1;stop-opacity:1"
     transform="matrix(0.18344446,0,0,-0.18344446,77.297502,1203.8494)"
     id="g12">
    <path
       inkscape:connector-curvature="0"
       id="path14"
       style="fill:#3270bb;fill-opacity:1;fill-rule:nonzero;stroke:none"
       d="m 2234.15,3263.61 c 357.51,596.94 1010.4,996.59 1756.76,996.59 746.27,0 1398.35,-399.85 1755.96,-996.59 h 0.9 c -373.91,691.9 -1104.93,1162.37 -1946.6,1162.37 -841.88,0 -1573.86,-470.27 -1947.72,-1162.37 h 380.7" />
    <path
       inkscape:connector-curvature="0"
       id="path16"
       style="fill:#3270bb;fill-opacity:1;fill-rule:nonzero;stroke:none"
       d="m 2234.05,1162.36 c 357.5,-596.86 1010.39,-996.63 1756.77,-996.63 746.26,0 1398.35,399.981 1755.94,996.63 h 1.01 C 5373.76,470.551 4642.74,0 3801.08,0 2959.2,0 2227.21,470.281 1853.34,1162.36 h 380.71" />
    <path
       inkscape:connector-curvature="0"
       id="path18"
       style="fill:#f68712;fill-opacity:1;fill-rule:nonzero;stroke:none"
       d="m 5243.55,3263.61 c -286.61,435.93 -809.96,727.77 -1408.33,727.77 -598.27,0 -1121.05,-292.04 -1407.72,-727.77 h -0.81 c 299.85,505.23 885.9,848.85 1560.63,848.85 674.94,0 1261.71,-343.4 1561.44,-848.85 h -305.21" />
    <path
       inkscape:connector-curvature="0"
       id="path20"
       style="fill:#f68712;fill-opacity:1;fill-rule:nonzero;stroke:none"
       d="M 5243.44,1162.36 C 4956.82,726.512 4433.5,434.57 3835.12,434.57 c -598.27,0 -1121.06,292.071 -1407.73,727.79 h -0.8 c 299.84,-505.219 885.91,-848.84 1560.63,-848.84 674.92,0 1261.7,343.39 1561.43,848.84 h -305.21" />
    <path
       inkscape:connector-curvature="0"
       id="path22"
       style="fill:#f68712;fill-opacity:1;fill-rule:nonzero;stroke:none"
       d="M 5272.74,2232.57 4522.79,2712.94 5242.64,1465.21 6461.16,3493.66 6450.7,3593.78 5272.74,2232.57" />
    <path
       inkscape:connector-curvature="0"
       id="path24"
       style="fill:#243c74;fill-opacity:1;fill-rule:nonzero;stroke:none"
       d="m 871.113,2382.82 -11.836,2.87 c -391.765,94.1 -441.25,117.87 -441.25,211.91 0,146.03 176.051,153.44 211.336,153.44 118.067,0 247.024,-13.04 282.641,-168.69 l 3.109,-13.56 362.927,-52.54 v 23.43 c 0,378.67 -327.325,513.56 -633.657,513.56 -285.567,0 -592.9221,-151.31 -592.9221,-483.52 0,-342.32 313.9651,-418.74 566.2461,-480.14 185.27,-45.11 345.258,-84.05 345.258,-208.32 0,-158.28 -212.656,-170.58 -277.832,-170.58 -190.215,0 -294.528,69.55 -318.879,212.61 l -2.43,14.26 L 0,1997.38 v -23.88 c 0,-417.03 362.137,-565.02 672.262,-565.02 405.398,0 657.238,195.96 657.238,511.4 0,352.08 -333.02,432.61 -458.387,462.94" />
    <path
       inkscape:connector-curvature="0"
       id="path26"
       style="fill:#243c74;fill-opacity:1;fill-rule:nonzero;stroke:none"
       d="m 2737.97,1979.02 c -28.21,15.18 -62,33.35 -113.16,59.69 l -17.82,9.17 -9.39,-17.71 c -74.23,-140.19 -220.21,-227.27 -380.99,-227.27 -239.52,0 -434.4,194.86 -434.4,434.39 0,239.52 194.88,434.4 434.4,434.4 152.69,0 293.87,-80.75 368.44,-210.73 l 9.41,-16.42 17.02,8.27 c 128.43,62.31 153.15,75.31 245.15,123.65 l 61.29,32.15 -10.17,18.18 c -140.58,251.14 -405.39,407.15 -691.14,407.15 -439.29,0 -796.67,-357.38 -796.67,-796.65 0,-439.27 357.38,-796.66 796.67,-796.66 299.89,0 563.13,158.77 704.22,424.7 l 10.11,19.08 -19.66,8.89 c -88.62,40.16 -120.49,57.31 -173.31,85.72" />
    <path
       inkscape:connector-curvature="0"
       id="path28"
       style="fill:#243c74;fill-opacity:1;fill-rule:nonzero;stroke:none"
       d="m 3607.32,2135.31 227.22,522.56 219.64,-522.56 z m 39.66,879.33 -713.31,-1569.72 h 351 l 160.88,338.87 h 748.19 l 150.14,-338.87 h 370.48 l -702.29,1569.72 h -365.09" />
    <path
       inkscape:connector-curvature="0"
       id="path30"
       style="fill:#243c74;fill-opacity:1;fill-rule:nonzero;stroke:none"
       d="m 6492.09,2135.31 227.22,522.57 219.64,-522.57 z m 404.75,879.33 h -365.08 l -713.3,-1569.72 h 350.99 l 160.84,338.87 h 748.22 l 150.11,-338.87 h 370.5 l -702.28,1569.72" />
  </g>
</svg>
