<?xml version="1.0" encoding="UTF-8" standalone="no"?>
<svg
   xmlns:dc="http://purl.org/dc/elements/1.1/"
   xmlns:cc="http://creativecommons.org/ns#"
   xmlns:rdf="http://www.w3.org/1999/02/22-rdf-syntax-ns#"
   xmlns:svg="http://www.w3.org/2000/svg"
   xmlns="http://www.w3.org/2000/svg"
   xmlns:xlink="http://www.w3.org/1999/xlink"
   xmlns:sodipodi="http://sodipodi.sourceforge.net/DTD/sodipodi-0.dtd"
   xmlns:inkscape="http://www.inkscape.org/namespaces/inkscape"
   enable-background="new"
   width="1171.708"
   height="1171.708"
   viewBox="0 0 1171.7079 1171.708"
   id="svg5602"
   version="1.1"
   inkscape:version="1.0beta1 (32d4812, 2019-09-19)"
   sodipodi:docname="XMLIntellEditLogo.svg"
   inkscape:export-filename="/Users/patrickneubauer/XMLIntellEditLogo.png"
   inkscape:export-xdpi="49.963837"
   inkscape:export-ydpi="49.963837">
  <defs
     id="defs5604">
    <linearGradient
       gradientTransform="matrix(9.1378871,0,0,-9.1411541,5400.9633,5693.8196)"
       gradientUnits="userSpaceOnUse"
       id="SVGID_1_"
       x1="-577.51221"
       x2="-482.48792"
       y1="501.14551"
       y2="636.85437"
       xlink:href="#SVGID_1_-1-7-5-1">
      <stop
         offset="0"
         style="stop-color:#f3c900;stop-opacity:0"
         id="stop4" />
      <stop
         offset="1"
         style="stop-color:#a14d7d;stop-opacity:1"
         id="stop6" />
    </linearGradient>
    <linearGradient
       gradientTransform="matrix(9.1539694,0,0,-9.1539694,3767.519,5013.5001)"
       gradientUnits="userSpaceOnUse"
       id="SVGID_1_-1-7-5-1"
       x1="-527.56848"
       x2="-440.18549"
       y1="560.98523"
       y2="641.09772">
      <stop
         offset="0"
         style="stop-color:#ffaa83;stop-opacity:1"
         id="stop4-3-2-4-3" />
      <stop
         offset="1"
         style="stop-color:#a2002f;stop-opacity:1"
         id="stop6-9-6-8-3" />
    </linearGradient>
    <linearGradient
       inkscape:collect="always"
       xlink:href="#SVGID_1_"
       id="linearGradient862"
       gradientUnits="userSpaceOnUse"
       gradientTransform="matrix(9.1378871,0,0,-9.1411541,5402.9633,5694.1039)"
       x1="-577.51221"
       y1="501.14551"
       x2="-482.48792"
       y2="636.85437" />
    <linearGradient
       inkscape:collect="always"
       xlink:href="#SVGID_1_"
       id="linearGradient864"
       gradientUnits="userSpaceOnUse"
       gradientTransform="matrix(9.1378871,0,0,-9.1411541,5402.9633,5693.84)"
       x1="-577.51221"
       y1="501.14551"
       x2="-482.48792"
       y2="636.85437" />
    <filter
       id="filter1521"
       style="color-interpolation-filters:sRGB"
       inkscape:collect="always">
      <feBlend
         id="feBlend1523"
         in2="BackgroundImage"
         mode="overlay"
         inkscape:collect="always" />
    </filter>
  </defs>
  <sodipodi:namedview
     id="base"
     pagecolor="#ffffff"
     bordercolor="#666666"
     borderopacity="1.0"
     inkscape:pageopacity="0.0"
     inkscape:pageshadow="2"
     inkscape:zoom="0.35"
     inkscape:cx="467.14286"
     inkscape:cy="560"
     inkscape:document-units="px"
     inkscape:current-layer="layer1"
     showgrid="false"
     units="px"
     inkscape:window-width="1480"
     inkscape:window-height="1209"
     inkscape:window-x="977"
     inkscape:window-y="112"
     inkscape:window-maximized="0"
     inkscape:snap-text-baseline="false"
     fit-margin-top="0"
     fit-margin-left="0"
     fit-margin-right="0"
     fit-margin-bottom="0"
     inkscape:document-rotation="0" />
  <metadata
     id="metadata5607">
    <rdf:RDF>
      <cc:Work
         rdf:about="">
        <dc:format>image/svg+xml</dc:format>
        <dc:type
           rdf:resource="http://purl.org/dc/dcmitype/StillImage" />
        <dc:title />
      </cc:Work>
    </rdf:RDF>
  </metadata>
  <g
     inkscape:label="Ebene 1"
     inkscape:groupmode="layer"
     id="layer1"
     transform="translate(26.941835,92.532829)">
    <path
       id="path896"
       d="m 1142.7077,933.27706 c 0,80.44254 -65.7928,146.25804 -146.20628,146.25804 H 119.26446 c -80.413419,0 -146.206269,-65.8155 -146.206269,-146.25804 V 55.726178 c 0,-80.4424 65.79285,-146.258996 146.206269,-146.258996 h 877.23696 c 80.41348,0 146.20628,65.816596 146.20628,146.258996 z"
       style="opacity:1;fill:#ffffff;fill-opacity:1;stroke-width:5.32491541"
       inkscape:connector-curvature="0" />
    <path
       inkscape:connector-curvature="0"
       style="opacity:1;fill:url(#linearGradient864);fill-opacity:1;stroke-width:5.32491541"
       d="m 1144.7077,931.29735 c 0,80.44255 -65.7928,146.25805 -146.20631,146.25805 H 121.26443 c -80.413415,0 -146.20626,-65.8155 -146.20626,-146.25805 V 53.746435 c 0,-80.44243 65.792845,-146.258959 146.20626,-146.258959 h 877.23696 c 80.41351,0 146.20631,65.816529 146.20631,146.258959 z"
       id="path8-6" />
    <path
       id="path860"
       d="m 1144.7077,931.5613 c 0,80.4425 -65.7928,146.258 -146.2063,146.258 H 121.26443 c -80.413415,0 -146.206265,-65.8155 -146.206265,-146.258 V 54.010405 c 0,-80.44243 65.79285,-146.258963 146.206265,-146.258963 H 998.5014 c 80.4135,0 146.2063,65.816533 146.2063,146.258963 z"
       style="opacity:1;fill:url(#linearGradient862);fill-opacity:1;stroke-width:5.32491541"
       inkscape:connector-curvature="0" />
    <g
       id="Livello_26-6"
       transform="matrix(6.377576,0,0,6.3798561,-627.8686,1241.6121)">
      <path
         d="m 177.30183,-110.46863 c 0,-0.562 0.448,-1.013 1.008,-1.013 h 14.525 c 0.561,0 1.012,0.45 1.012,1.013 0,0.561 -0.451,1.014 -1.012,1.014 h -14.525 c -0.558,-0.001 -1.008,-0.454 -1.008,-1.014 m 58.408,-6.443 h -100.688 v -67.445 h 100.688 z m 20.021,6.939 c 0,-1.5 -1.213,-2.716 -2.707,-2.716 v -0.193 h -14.363 c 0.732,-0.328 1.246,-1.063 1.246,-1.923 v -71.664 c 0,-1.164 -0.938,-2.107 -2.1,-2.107 h -104.884 c -1.155,0 -2.097,0.943 -2.097,2.107 v 71.663 c 0,0.855 0.513,1.595 1.245,1.923 h -13.95 v 0.188 c -1.494,-10e-4 -2.706,1.217 -2.706,2.719 0,1.502 1.212,2.72 2.706,2.72 h 134.903 c 1.496,-0.002 2.707,-1.217 2.707,-2.717"
         id="path3344-1"
         inkscape:connector-curvature="0" />
    </g>
    <path
       style="fill:#f5cf49;fill-opacity:1;stroke:#37474f;stroke-width:6.37871552;stroke-opacity:1"
       inkscape:connector-curvature="0"
       d="m 262.38146,231.18988 c -9.06655,0 -12.77517,-6.42726 -8.24208,-14.28078 l 31.00357,-53.71776 c 4.53298,-7.85566 11.95129,-7.85566 16.48437,0 l 31.00379,53.71776 c 4.53303,7.85565 0.82484,14.28078 -8.24267,14.28078 z"
       id="path15-8-5-7" />
    <path
       style="fill:#e74c3c;stroke:#37474f;stroke-width:6.37871552;stroke-miterlimit:4;stroke-dasharray:none;stroke-opacity:1"
       inkscape:connector-curvature="0"
       d="m 334.06943,377.63045 c 0,21.49839 -17.42049,38.92516 -38.91088,38.92516 -21.48965,0 -38.91083,-17.42677 -38.91083,-38.92516 0,-21.49733 17.42118,-38.92463 38.91083,-38.92463 21.49039,0 38.91088,17.4273 38.91088,38.92463 z"
       id="path8-3-9-3" />
    <path
       style="fill:#37474f;fill-opacity:1;stroke-width:5.32491541"
       inkscape:connector-curvature="0"
       d="m 275.8989,363.61756 13.7577,14.01289 -13.7577,13.6241 5.50274,5.44943 13.75691,-13.62357 13.75893,13.62357 5.50194,-5.44943 -13.75877,-13.6241 13.75877,-14.01289 -5.50194,-5.44943 -13.75893,13.6241 -13.75691,-13.6241 z"
       id="path12-06-8-3" />
    <path
       inkscape:connector-curvature="0"
       style="fill:#37474f;fill-opacity:1;stroke-width:5.32491541"
       d="M 690.64522,129.89721 H 319.90151 v -19.82873 h 370.74371 z"
       id="path19-6-5-8" />
    <path
       inkscape:connector-curvature="0"
       style="fill:#37474f;fill-opacity:1;stroke-width:5.32491541"
       d="M 518.72584,195.09967 H 395.1527 v -19.82873 h 123.57314 z"
       id="path21-7-5-9" />
    <path
       inkscape:connector-curvature="0"
       style="fill:#37474f;fill-opacity:1;stroke-width:5.32491541"
       d="M 576.5501,260.30213 H 480.43711 V 240.4734 h 96.11299 z"
       id="path23-5-5-1" />
    <path
       inkscape:connector-curvature="0"
       style="fill:#37474f;fill-opacity:1;stroke-width:5.32491541"
       d="M 826.0761,325.50246 H 455.35363 v -19.8282 H 826.0761 Z"
       id="path25-3-8-4" />
    <path
       inkscape:connector-curvature="0"
       style="fill:#37474f;fill-opacity:1;stroke-width:5.32491541"
       d="m 496.28815,390.70332 h -96.11879 v -19.82873 h 96.11879 z"
       id="path27-8-5-2" />
    <path
       inkscape:connector-curvature="0"
       style="fill:#37474f;fill-opacity:1;stroke-width:5.32491541"
       d="m 672.66603,455.90583 h -322.664 V 436.0771 h 322.664 z"
       id="path29-0-2-0" />
    <g
       id="g17-8-9-5"
       transform="matrix(2.0605798,0,0,2.0613166,227.44636,132.24645)">
      <path
         style="fill:#37474f;fill-opacity:1"
         inkscape:connector-curvature="0"
         d="m 34,32 c 0,1.105 -0.895,2 -2,2 v 0 c -1.105,0 -2,-0.895 -2,-2 v -8 c 0,-1.105 0.895,-2 2,-2 v 0 c 1.105,0 2,0.895 2,2 z"
         id="path19-4-2-3-5" />
    </g>
    <g
       id="g21-7-1-4"
       transform="matrix(2.0605798,0,0,2.0613166,227.44636,132.24645)">
      <path
         style="fill:#37474f;fill-opacity:1"
         inkscape:connector-curvature="0"
         d="m 34,40 c 0,1.105 -0.895,2 -2,2 v 0 c -1.105,0 -2,-0.895 -2,-2 v 0 c 0,-1.105 0.895,-2 2,-2 v 0 c 1.105,0 2,0.895 2,2 z"
         id="path23-7-9-0-94" />
    </g>
    <ellipse
       style="fill:#ffd766;fill-opacity:1;stroke-width:5.32491541"
       id="path5110-2-0-8"
       cx="467.87079"
       cy="282.45419"
       rx="69.674988"
       ry="69.114182" />
    <path
       style="fill:#000000;fill-rule:evenodd;stroke:none;stroke-width:5.32491541"
       inkscape:connector-curvature="0"
       d="m 531.65732,327.75637 c 9.09194,-13.04412 14.42379,-28.90615 14.42379,-46.01336 0,-44.48431 -36.04808,-80.54522 -80.51564,-80.54522 -44.46744,0 -80.51563,36.06091 -80.51563,80.54522 0,44.4827 36.04819,80.54362 80.51563,80.54362 17.09919,0 32.95337,-5.33226 45.99165,-14.42511 l 0.005,-0.005 59.7098,59.73226 c 1.10711,1.10672 2.86812,1.1408 4.00473,0.004 l 16.09374,-16.09956 c 1.10471,-1.10512 1.05333,-2.94787 -0.004,-4.00665 l -59.70855,-59.73013 z m -66.09185,15.57869 c 34.00469,0 61.57079,-27.57574 61.57079,-61.59205 0,-34.01791 -27.5661,-61.59312 -61.57079,-61.59312 -34.00458,0 -61.57078,27.57521 -61.57078,61.59312 0,34.01631 27.5662,61.59205 61.57078,61.59205 z"
       id="common-search-lookup-glyph-5-2-2-5" />
    <path
       inkscape:connector-curvature="0"
       class="st0"
       d="m 481.0252,282.56905 -7.10228,-0.50596 c -0.5893,-2.69595 -1.65633,-5.22308 -3.08805,-7.47006 l 4.68817,-5.36421 c 0.50525,-0.50596 0.50525,-1.34745 0,-1.88057 l -4.40739,-4.40928 c -0.50524,-0.50596 -1.34749,-0.50596 -1.88085,0 l -5.36182,4.68942 c -2.2458,-1.43159 -4.77224,-2.49889 -7.46717,-3.08847 l -0.50525,-7.10524 c 0,-0.73017 -0.58931,-1.32028 -1.31938,-1.32028 h -6.23213 c -0.72981,0 -1.31938,0.58691 -1.31938,1.32028 l -0.50525,7.10524 c -2.69493,0.58691 -5.22147,1.65688 -7.46728,3.08847 l -5.36176,-4.68942 c -0.50525,-0.50596 -1.34745,-0.50596 -1.88091,0 l -4.40728,4.40928 c -0.50525,0.50596 -0.50525,1.34798 0,1.88057 l 4.68807,5.36421 c -1.43172,2.24698 -2.49843,4.77411 -3.08795,7.47006 l -7.10233,0.50596 c -0.72986,0 -1.31944,0.58744 -1.31944,1.31975 v 6.23446 c 0,0.73017 0.58931,1.31975 1.31944,1.31975 l 7.10233,0.50596 c 0.58931,2.69595 1.65623,5.22361 3.08795,7.47006 l -4.68807,5.36368 c -0.50525,0.50595 -0.50525,1.34797 0,1.88163 l 4.40728,4.40822 c 0.50525,0.50595 1.34755,0.50595 1.88091,0 l 5.36176,-4.68943 c 2.24581,1.43266 4.77235,2.49943 7.46728,3.08954 l 0.50525,7.1047 c 0,0.72965 0.58931,1.31975 1.31938,1.31975 h 6.23213 c 0.72986,0 1.31938,-0.58691 1.31938,-1.31975 l 0.50525,-7.1047 c 2.69493,-0.58745 5.22137,-1.65688 7.46717,-3.08954 l 5.36182,4.68943 c 0.50525,0.50595 1.34755,0.50595 1.88085,0 l 4.40739,-4.40822 c 0.50525,-0.50596 0.50525,-1.34851 0,-1.88163 l -4.68817,-5.36368 c 1.43172,-2.24645 2.49848,-4.77411 3.08805,-7.47006 l 7.10228,-0.50596 c 0.72986,0 1.31944,-0.58691 1.31944,-1.31975 v -6.23446 c 0,-0.73018 -0.58931,-1.31975 -1.31944,-1.31975 z m -29.56014,17.13065 c -7.0181,0 -12.68865,-5.67365 -12.68865,-12.69314 0,-7.02162 5.67055,-12.69367 12.68865,-12.69367 7.01805,0 12.68866,5.67205 12.68866,12.69367 0,6.9918 -5.67061,12.69314 -12.68866,12.69314 z"
       id="path7-86-5-1-3"
       style="stroke-width:5.32491541" />
    <path
       inkscape:connector-curvature="0"
       class="st0"
       d="m 514.23475,256.98625 -4.40733,1.54397 c -1.06682,-1.45982 -2.35809,-2.72312 -3.78981,-3.67911 l 1.43172,-4.46521 c 0.16823,-0.44737 -0.0319,-0.95333 -0.47703,-1.12216 l -3.78981,-1.51627 c -0.44988,-0.16511 -0.95443,0.0639 -1.12288,0.47932 l -2.02119,4.21276 c -1.74051,-0.28227 -3.50908,-0.28227 -5.3057,0.0905 l -2.13347,-4.15684 c -0.19646,-0.44737 -0.70181,-0.64549 -1.15099,-0.44737 l -3.76165,1.62918 c -0.44881,0.19174 -0.64569,0.70142 -0.44881,1.15039 l 1.54401,4.40929 c -1.45978,1.0673 -2.72305,2.35936 -3.67753,3.79095 l -4.46345,-1.43159 c -0.44881,-0.16511 -0.95448,0.0639 -1.12293,0.47932 l -1.51584,3.79042 c -0.16824,0.44738 0.0319,0.95546 0.47702,1.12376 l 4.21094,2.02223 c -0.28057,1.7405 -0.28057,3.50922 0.0841,5.30723 l -4.15466,2.13407 c -0.44881,0.19174 -0.64569,0.70249 -0.44881,1.15146 l 1.62812,3.76379 c 0.19645,0.44737 0.7018,0.64496 1.15099,0.44737 l 4.40733,-1.54397 c 1.06677,1.45929 2.35815,2.72312 3.78976,3.67858 l -1.43161,4.4652 c -0.16824,0.44738 0.0266,0.9544 0.47702,1.1227 l 3.78971,1.5168 c 0.44881,0.16511 0.95448,-0.0639 1.12293,-0.47932 l 2.02124,-4.21276 c 1.74046,0.28227 3.50897,0.28227 5.30565,-0.0905 l 2.13347,4.1563 c 0.19646,0.44737 0.70181,0.6455 1.15094,0.44737 l 3.7617,-1.62918 c 0.44987,-0.19173 0.64569,-0.70195 0.44987,-1.15092 l -1.544,-4.40928 c 1.45983,-1.06677 2.72305,-2.35936 3.67747,-3.79096 l 4.46356,1.4316 c 0.44881,0.17043 0.95443,-0.0639 1.12282,-0.47933 l 1.51595,-3.79095 c 0.16824,-0.44737 -0.0319,-0.95493 -0.47703,-1.12323 l -4.21083,-2.0217 c 0.28058,-1.74156 0.28058,-3.51028 -0.0841,-5.30776 l 4.15467,-2.13407 c 0.44987,-0.19173 0.64569,-0.70248 0.44987,-1.15145 l -1.62817,-3.76326 c -0.22468,-0.44737 -0.72987,-0.64496 -1.15099,-0.44737 z m -13.36245,18.00036 c -4.21083,1.82571 -9.12347,-0.10652 -10.9482,-4.35283 -1.82468,-4.23992 0.11233,-9.12694 4.35117,-10.95158 4.21088,-1.82517 9.12351,0.11717 10.94825,4.35283 1.82473,4.24099 -0.14055,9.12587 -4.35122,10.95158 z"
       id="path9-1-3-5-4-6"
       style="stroke-width:5.32491541" />
    <path
       inkscape:connector-curvature="0"
       style="fill:#ffd766;stroke-width:5.32491541"
       d="m 754.19487,352.51366 c 0,0 0,-8.04898 0,-8.04898 2.41388,-8.04899 7.24149,-19.31799 17.70154,-29.78119 23.33365,-23.34221 23.33365,-57.14815 0,-81.29509 -10.45994,-11.26847 -25.74759,-17.70745 -41.03514,-17.70745 v 0 c -15.28766,0 -29.7706,6.43898 -41.0352,17.70745 -23.3336,24.14694 -23.3336,57.95288 0,81.29509 10.45999,10.4632 15.28766,29.78119 17.70149,37.83017"
       id="path9-01" />
    <path
       inkscape:connector-curvature="0"
       style="fill:none;stroke:#000000;stroke-width:16.09509277;stroke-linecap:round;stroke-linejoin:round;stroke-miterlimit:10;stroke-opacity:1"
       d="m 754.19487,344.46468 c 0,0 0,0 0,0 2.41388,-8.04899 6.43688,-19.31799 16.89693,-29.78119 23.33365,-23.34221 23.33365,-57.14815 0,-81.29509 -10.46005,-11.26847 -25.74759,-17.70745 -41.03514,-17.70745 v 0 c -15.28766,0 -29.7706,6.43898 -41.0352,17.70745 -23.33365,24.14694 -23.33365,57.95288 0,81.29509 10.45994,10.4632 15.28766,21.7322 17.70149,29.78119"
       stroke-miterlimit="10"
       id="path11-6" />
    <line
       style="fill:none;stroke:#000000;stroke-width:16.09509277;stroke-linecap:round;stroke-linejoin:round;stroke-miterlimit:10;stroke-opacity:1"
       stroke-miterlimit="10"
       x1="701.09082"
       x2="757.41357"
       y1="357.34335"
       y2="357.34335"
       id="line13-6" />
    <line
       style="fill:none;stroke:#000000;stroke-width:16.09509277;stroke-linecap:round;stroke-linejoin:round;stroke-miterlimit:10;stroke-opacity:1"
       stroke-miterlimit="10"
       x1="709.13727"
       x2="749.36749"
       y1="381.49051"
       y2="381.49051"
       id="line15-1" />
    <line
       style="fill:none;stroke:#000000;stroke-width:16.09509277;stroke-linecap:round;stroke-linejoin:round;stroke-miterlimit:10;stroke-opacity:1"
       stroke-miterlimit="10"
       x1="717.18329"
       x2="741.32159"
       y1="397.58838"
       y2="397.58838"
       id="line17-3" />
    <line
       style="fill:none;stroke:#000000;stroke-width:16.09509277;stroke-linecap:round;stroke-linejoin:round;stroke-miterlimit:10;stroke-opacity:1"
       stroke-miterlimit="10"
       x1="725.22925"
       x2="725.22925"
       y1="196.36331"
       y2="164.16756"
       id="line19-03" />
    <line
       style="fill:none;stroke:#000000;stroke-width:16.09509277;stroke-linecap:round;stroke-linejoin:round;stroke-miterlimit:10;stroke-opacity:1"
       stroke-miterlimit="10"
       x1="813.73651"
       x2="845.92096"
       y1="276.85333"
       y2="276.85333"
       id="line21-3" />
    <line
       style="fill:none;stroke:#000000;stroke-width:16.09509277;stroke-linecap:round;stroke-linejoin:round;stroke-miterlimit:10;stroke-opacity:1"
       stroke-miterlimit="10"
       x1="620.62988"
       x2="652.81415"
       y1="276.85333"
       y2="276.85333"
       id="line23-1" />
    <line
       style="fill:none;stroke:#000000;stroke-width:16.09509277;stroke-linecap:round;stroke-linejoin:round;stroke-miterlimit:10;stroke-opacity:1"
       stroke-miterlimit="10"
       x1="795.23047"
       x2="819.3689"
       y1="218.09586"
       y2="193.94872"
       id="line25-0" />
    <line
       style="fill:none;stroke:#000000;stroke-width:16.09509277;stroke-linecap:round;stroke-linejoin:round;stroke-miterlimit:10;stroke-opacity:1"
       stroke-miterlimit="10"
       x1="668.10168"
       x2="643.96344"
       y1="218.09586"
       y2="193.94872"
       id="line27-9" />
    <polyline
       transform="matrix(8.0461094,0,0,8.048986,443.61525,67.579243)"
       style="fill:none;stroke:#000000;stroke-width:2;stroke-linecap:round;stroke-linejoin:round;stroke-miterlimit:10;stroke-opacity:1"
       points="  35.7,25.3 34.1,28.2 37.4,28.2 35.7,31.1 "
       stroke-miterlimit="10"
       id="polyline29-2" />
    <text
       xml:space="preserve"
       style="font-style:normal;font-weight:normal;font-size:63.899px;line-height:0%;font-family:sans-serif;letter-spacing:0px;word-spacing:0px;fill:#000000;fill-opacity:1;stroke:none;stroke-width:5.32492px;stroke-linecap:butt;stroke-linejoin:miter;stroke-opacity:1"
       x="550.79712"
       y="748.3103"
       id="text5552-8"
       transform="scale(0.99982129,1.0001787)"><tspan
         sodipodi:role="line"
         x="556.12201"
         y="748.3103"
         style="font-style:italic;font-variant:normal;font-weight:bold;font-stretch:normal;font-size:186.372px;line-height:110%;font-family:'Courier New';-inkscape-font-specification:'Courier New Bold Italic';text-align:center;letter-spacing:10.6498px;writing-mode:lr-tb;text-anchor:middle;stroke-width:5.32492px"
         id="tspan3389-3">&lt;XML/&gt;</tspan></text>
    <text
       xml:space="preserve"
       style="font-style:normal;font-weight:normal;line-height:0%;font-family:sans-serif;letter-spacing:0px;word-spacing:0px;fill:#000000;fill-opacity:1;stroke:none;stroke-width:1px;stroke-linecap:butt;stroke-linejoin:miter;stroke-opacity:1"
       x="236.31477"
       y="953.39539"
       id="text5552-9"><tspan
         sodipodi:role="line"
         id="tspan5554"
         x="236.31477"
         y="953.39539"
         style="font-style:normal;font-variant:normal;font-weight:normal;font-stretch:normal;font-size:40px;line-height:1.25;font-family:'Helvetica Neue';-inkscape-font-specification:'Helvetica Neue'"><tspan
           id="tspan1651"
           style="font-style:normal;font-variant:normal;font-weight:normal;font-stretch:normal;font-size:212px;font-family:'Helvetica Neue';-inkscape-font-specification:'Helvetica Neue Normal';font-variant-ligatures:normal;font-variant-caps:normal;font-variant-numeric:normal;font-variant-east-asian:normal">Intell</tspan><tspan
           style="font-style:normal;font-variant:normal;font-weight:normal;font-stretch:normal;font-size:132px;font-family:'Helvetica Neue';-inkscape-font-specification:'Helvetica Neue Normal';font-variant-ligatures:normal;font-variant-caps:normal;font-variant-numeric:normal;font-variant-east-asian:normal"
           id="tspan5560-1"
           dy="25">Edit</tspan></tspan></text>
  </g>
</svg>
