<?xml version="1.0" encoding="UTF-8" standalone="no"?>
<svg
   xmlns:dc="http://purl.org/dc/elements/1.1/"
   xmlns:cc="http://creativecommons.org/ns#"
   xmlns:rdf="http://www.w3.org/1999/02/22-rdf-syntax-ns#"
   xmlns:svg="http://www.w3.org/2000/svg"
   xmlns="http://www.w3.org/2000/svg"
   xmlns:sodipodi="http://sodipodi.sourceforge.net/DTD/sodipodi-0.dtd"
   xmlns:inkscape="http://www.inkscape.org/namespaces/inkscape"
   height="512px"
   id="Layer_1"
   style="enable-background:new 0 0 512 512;"
   version="1.1"
   viewBox="0 0 512 512"
   width="512px"
   xml:space="preserve"
   sodipodi:docname="youtube.svg"
   inkscape:version="0.92.2 5c3e80d, 2017-08-06"><metadata
     id="metadata21"><rdf:RDF><cc:Work
         rdf:about=""><dc:format>image/svg+xml</dc:format><dc:type
           rdf:resource="http://purl.org/dc/dcmitype/StillImage" /><dc:title></dc:title></cc:Work></rdf:RDF></metadata><sodipodi:namedview
     pagecolor="#ffffff"
     bordercolor="#666666"
     borderopacity="1"
     objecttolerance="10"
     gridtolerance="10"
     guidetolerance="10"
     inkscape:pageopacity="0"
     inkscape:pageshadow="2"
     inkscape:window-width="1348"
     inkscape:window-height="784"
     id="namedview19"
     showgrid="false"
     inkscape:zoom="0.56278518"
     inkscape:cx="237.4358"
     inkscape:cy="328.19377"
     inkscape:window-x="0"
     inkscape:window-y="0"
     inkscape:window-maximized="0"
     inkscape:current-layer="Layer_1"
     inkscape:pagecheckerboard="true" /><defs
     id="defs19" /><g
     id="g3021" /><g
     id="Layer_1_1_" /><g
     id="g2992"
     transform="translate(35.407814,113.84985)"><rect
       height="512"
       id="rect2989"
       rx="70"
       ry="70"
       style="fill:#ffffff;fill-opacity:1;stroke:none"
       transform="scale(-1)"
       width="512"
       x="-478.81964"
       y="-400.40735" /><g
       id="g2986"
       transform="matrix(1.3666446,0,0,1.3666446,-93.412758,-93.765346)" /></g><g
     id="g4189"
     transform="matrix(0.75,0,0,0.75,613.91656,128.30184)"><g
       transform="matrix(13.379299,0,0,13.379299,367.57987,-1779.0463)"
       id="g4167"><path
         inkscape:connector-curvature="0"
         style="fill:#ff0000;fill-opacity:1;fill-rule:nonzero;stroke:none"
         d="m 149.9375,79.222656 c 0,0 -63.218849,5.9e-5 -79.085938,4.123047 -8.495787,2.373802 -15.491408,9.3695 -17.865234,17.990237 -4.122953,15.8671 -4.123047,48.72656 -4.123047,48.72656 0,0 9.4e-5,32.9842 4.123047,48.60156 2.373826,8.62062 9.244506,15.49138 17.865234,17.86524 15.99203,4.24788 79.085938,4.24804 79.085938,4.24804 0,0 63.34418,-5e-5 79.21094,-4.12304 8.62079,-2.37381 15.49133,-9.11966 17.74023,-17.86524 4.24793,-15.74232 4.24805,-48.60156 4.24805,-48.60156 0,0 0.12484,-32.98446 -4.24805,-48.85156 -2.2489,-8.620737 -9.11944,-15.491334 -17.74023,-17.740237 -15.86676,-4.372847 -79.21094,-4.373047 -79.21094,-4.373047 z m -20.11523,40.480464 52.59961,30.35938 -52.59961,30.23438 z"
         transform="matrix(0.16941596,0,0,0.16941596,-88.332912,120.50856)"
         id="path4156" /></g></g></svg>