<?xml version="1.0" ?><!DOCTYPE svg  PUBLIC '-//W3C//DTD SVG 1.1//EN'  'http://www.w3.org/Graphics/SVG/1.1/DTD/svg11.dtd'><svg height="512px" id="Layer_1" style="enable-background:new 0 0 512 512;" version="1.1" viewBox="0 0 512 512" width="512px" xml:space="preserve" xmlns="http://www.w3.org/2000/svg" xmlns:xlink="http://www.w3.org/1999/xlink"><g id="Layer_1_1_"><circle cx="260.291" cy="266.165" r="243" style="fill:#125E6E;"/></g><g id="Layer_2"><g id="Favorite"/><g><g><path d="M461.332,197.549l-3.71,12.373l-11.629,38.81c-0.629,2.116-3.514,3.808-6.44,3.808H282.82     c-2.926,0-5.81-1.692-6.44-3.808l-11.049-36.857l-4.29-14.326c-0.899-2.999,1.25-5.475,4.805-5.475h190.681     C460.082,192.074,462.231,194.55,461.332,197.549z" style="fill:#FFFFFF;"/><path d="M461.332,197.549l-3.71,12.373     l-11.629,38.81c-0.629,2.116-3.514,3.808-6.44,3.808H282.82c-2.926,0-5.81-1.692-6.44-3.808l-11.049-36.857l-4.29-14.326     c-0.899-2.999,1.25-5.475,4.805-5.475h190.681C460.082,192.074,462.231,194.55,461.332,197.549z" style="fill:#999999;adobe-blending-mode:multiply;enable-background:new    ;"/></g><path d="M461.332,192.915l-3.71,12.373l-11.629,38.81c-0.629,2.116-3.514,3.808-6.44,3.808H282.82    c-2.926,0-5.81-1.692-6.44-3.808l-11.049-36.857l-4.29-14.326c-0.899-2.999,1.25-5.475,4.805-5.475h190.681    C460.082,187.44,462.231,189.916,461.332,192.915z" style="fill:#FFFFFF;"/><g><g><defs><circle cx="260.836" cy="267.652" id="SVGID_1_" r="243"/></defs><clipPath id="SVGID_2_"><use style="overflow:visible;" xlink:href="#SVGID_1_"/></clipPath><g style="clip-path:url(#SVGID_2_);"><path d="M124.719,336.091c4.176,4.435,7.909,9.501,10.394,15.657c4.838,11.984,4.8,26.668,1.764,41.243       c-0.847,4.066,3.598,2.408,5.756,2.533c3.981,0.231,7.784,1.264,11.178,3.147c5.232,2.903,9.834,7.095,13.164,12.636       c6.269,10.433,7.152,24.751,3.642,39.03c-0.717,2.917-2.465,6.232,0.123,7.503c2.686,1.32,5.045,3.319,6.783,6.022       c3.293,5.12,5.665,16.29,2.103,23.633c-6.068,12.51-14.337,23.737-26.462,23.434c-6.653-0.166-13.012-4.897-18.752-7.499       c-28.796-13.054-57.592-26.107-86.376-39.186c-12.845-5.837-25.691-11.675-38.522-17.543       c-7.188-3.287-14.325-5.271-19.185-12.348c-15.927-23.192,0.37-68.017,28.506-77.932c7.599-2.678,15.14-2.26,21.79,0.287       c4.139,1.585,5.151,2.379,8.702-2.596c3.245-4.545,6.808-8.799,10.684-12.55c6.424-6.216,13.648-10.887,21.122-13.577       c3.846-1.384,7.723-2.254,11.553-2.687c2.021-0.228,4.004-0.17,6.018-0.338C103.297,324.579,118.371,329.35,124.719,336.091z" style="fill:#C4F0FF;"/></g></g><g><defs><circle cx="260.836" cy="267.652" id="SVGID_3_" r="243"/></defs><clipPath id="SVGID_4_"><use style="overflow:visible;" xlink:href="#SVGID_3_"/></clipPath><g style="clip-path:url(#SVGID_4_);"><path d="M0.898,239.854c4.403,3.934,8.438,8.336,11.372,13.501c5.713,10.055,6.99,21.842,5.381,33.273       c-0.449,3.189,3.668,2.255,5.749,2.549c3.84,0.542,7.581,1.711,11.006,3.527c5.279,2.799,10.069,6.576,13.759,11.324       c6.948,8.938,9.075,20.513,6.985,31.664c-0.427,2.278-1.807,4.784,0.789,6.036c2.695,1.3,5.137,3.116,7.047,5.442       c3.617,4.406,6.892,13.586,4.132,19.164c-4.703,9.502-11.632,17.777-23.292,16.449c-6.397-0.729-12.922-5.096-18.662-7.699       c-28.795-13.057-57.589-26.113-86.375-39.19c-12.846-5.836-25.692-11.672-38.527-17.531       c-7.19-3.282-14.215-5.513-19.511-11.631c-17.354-20.046-5.728-54.58,20.378-60.024c7.051-1.47,14.324-0.461,20.932,2.179       c4.113,1.643,5.155,2.371,8.117-1.306c2.707-3.359,5.745-6.456,9.128-9.121c5.607-4.417,12.12-7.521,19.051-9.012       c3.566-0.767,7.208-1.119,10.843-1.124c1.918-0.003,3.826,0.222,5.743,0.267C-20.684,228.694-5.795,233.874,0.898,239.854z" style="fill:#C4F0FF;"/></g></g><g><defs><circle cx="260.836" cy="267.652" id="SVGID_5_" r="243"/></defs><clipPath id="SVGID_6_"><use style="overflow:visible;" xlink:href="#SVGID_5_"/></clipPath><g style="clip-path:url(#SVGID_6_);"><path d="M303.149,427.032c4.954,4.426,9.492,9.377,12.794,15.189       c6.427,11.312,7.864,24.571,6.053,37.432c-0.505,3.588,4.126,2.537,6.467,2.867c4.32,0.609,8.528,1.925,12.381,3.968       c5.939,3.148,11.327,7.398,15.479,12.739c7.816,10.055,10.209,23.077,7.858,35.621c-0.48,2.563-2.033,5.382,0.888,6.79       c3.032,1.462,5.779,3.505,7.927,6.122c4.069,4.956,7.754,15.284,4.648,21.559c-5.29,10.689-13.086,19.998-26.203,18.505       c-7.197-0.82-14.537-5.733-20.994-8.661c-32.393-14.689-64.787-29.377-97.17-44.087c-14.452-6.565-28.903-13.131-43.342-19.722       c-8.088-3.692-15.991-6.202-21.949-13.084c-19.523-22.552-6.444-61.402,22.925-67.526c7.932-1.654,16.114-0.518,23.548,2.452       c4.627,1.849,5.799,2.667,9.131-1.469c3.045-3.779,6.463-7.263,10.268-10.261c6.307-4.969,13.635-8.461,21.431-10.138       c4.012-0.863,8.109-1.259,12.199-1.265c2.158-0.003,4.304,0.249,6.461,0.301C278.87,414.478,295.619,420.304,303.149,427.032z" style="fill:#C4F0FF;"/></g></g><g><defs><circle cx="260.836" cy="267.652" id="SVGID_7_" r="243"/></defs><clipPath id="SVGID_8_"><use style="overflow:visible;" xlink:href="#SVGID_7_"/></clipPath><g style="clip-path:url(#SVGID_8_);"><path d="M438.411,450.244c4.954,4.426,9.492,9.377,12.794,15.189       c6.427,11.312,7.864,24.571,6.053,37.432c-0.505,3.588,4.126,2.537,6.468,2.867c4.32,0.609,8.528,1.925,12.381,3.968       c5.939,3.148,11.327,7.398,15.479,12.739c7.816,10.055,10.209,23.077,7.858,35.621c-0.48,2.563-2.033,5.382,0.888,6.79       c3.032,1.462,5.779,3.505,7.927,6.122c4.069,4.956,7.754,15.284,4.648,21.559c-5.29,10.689-13.086,19.998-26.203,18.505       c-7.197-0.82-14.537-5.733-20.994-8.661c-32.393-14.689-64.787-29.377-97.17-44.087c-14.452-6.565-28.903-13.131-43.342-19.722       c-8.088-3.692-15.991-6.202-21.949-13.084c-19.523-22.552-6.444-61.402,22.925-67.526c7.932-1.654,16.114-0.518,23.548,2.452       c4.627,1.849,5.799,2.667,9.131-1.469c3.045-3.779,6.463-7.263,10.268-10.261c6.308-4.969,13.635-8.461,21.431-10.138       c4.012-0.863,8.109-1.259,12.199-1.265c2.158-0.003,4.304,0.249,6.461,0.301C414.132,437.69,430.882,443.517,438.411,450.244z" style="fill:#C4F0FF;"/></g></g></g><g style="opacity:0.4;adobe-blending-mode:screen;"><path d="M358.556,373.626c0-8.539-6.678-15.217-15.217-15.217     c8.539,0,15.217-6.678,15.217-15.217c0,8.539,6.678,15.217,15.217,15.217C365.235,358.409,358.556,365.087,358.556,373.626z" style="fill:#FFEC5F;adobe-blending-mode:normal;"/></g><g style="opacity:0.4;adobe-blending-mode:screen;"><path d="M236.624,84.707c0-8.539-6.678-15.217-15.217-15.217     c8.539,0,15.217-6.678,15.217-15.217c0,8.539,6.678,15.217,15.217,15.217C243.302,69.489,236.624,76.168,236.624,84.707z" style="fill:#FFEC5F;adobe-blending-mode:normal;"/></g><g style="opacity:0.4;adobe-blending-mode:screen;"><path d="M229.376,282.547c0-13.306-10.406-23.712-23.712-23.712     c13.306,0,23.712-10.406,23.712-23.712c0,13.306,10.406,23.712,23.712,23.712C239.782,258.835,229.376,269.241,229.376,282.547z" style="fill:#FFEC5F;adobe-blending-mode:normal;"/></g><path d="M456.527,187.44H305.252h-39.406    c-3.555,0-5.704,2.476-4.805,5.475l4.29,14.326c0.001,0,0.002,0.001,0.003,0.001l11.045,36.856    c0.629,2.116,3.514,3.808,6.44,3.808h28.039l-2.933-31.635c15.297,2.025,32.191,3.155,50.634,3.155    c40.746,0,74.056-5.524,99.063-14.138l3.71-12.373C462.231,189.916,460.082,187.44,456.527,187.44z" style="fill:#CCCCCC;adobe-blending-mode:multiply;enable-background:new    ;"/><g><path d="M511.448,150.594c0,29.972-54.999,61.883-152.892,61.883c-98.217,0-152.892-31.911-152.892-61.883     s68.452-44.667,152.892-44.667S511.448,120.621,511.448,150.594z" style="fill:#D51920;"/><path d="M511.448,150.594     c0,29.972-54.999,61.883-152.892,61.883c-98.217,0-152.892-31.911-152.892-61.883s68.452-44.667,152.892-44.667     S511.448,120.621,511.448,150.594z" style="fill:#D51920;adobe-blending-mode:multiply;enable-background:new    ;"/></g><ellipse cx="358.556" cy="148.077" rx="152.892" ry="47.008" style="fill:#D51920;"/><path d="M451.504,146.068c0-0.02,0.004-0.039,0.004-0.059c0-0.03-0.005-0.059-0.006-0.088    c-0.339-54.73-40.641-98.983-90.315-98.983s-89.976,44.253-90.315,98.983c-0.001,0.03-0.006,0.059-0.006,0.088    c0,0.02,0.004,0.039,0.004,0.059c0,0.096-0.004,0.192-0.004,0.289h0.024c0.993,9.132,41.038,16.479,90.298,16.479    s89.305-7.347,90.298-16.479h0.024C451.508,146.26,451.505,146.164,451.504,146.068z" style="fill:#A4BAE8;"/><path d="M375.091,162.638    c-4.535,0.131-9.177,0.196-13.901,0.196c-49.262,0-89.305-7.347-90.302-16.475h-0.024c0-0.098,0.008-0.196,0.008-0.294    c0-0.016-0.008-0.033-0.008-0.057s0.008-0.057,0.008-0.09c0.335-54.729,40.64-98.981,90.319-98.981    c4.732,0,9.374,0.4,13.901,1.177c-43.084,7.339-76.115,48.281-76.418,97.804c0,0.033-0.008,0.065-0.008,0.09    s0.008,0.041,0.008,0.057c0,0.098-0.008,0.196-0.008,0.294h0.024C299.589,154.613,332.408,161.404,375.091,162.638z" style="opacity:0.5;fill:#A4BAE8;adobe-blending-mode:multiply;enable-background:new    ;"/><path d="M428.332,157.595    c-0.007,0.041-0.007,0.09-0.014,0.131c6.835-1.487,12.355-3.26,16.205-5.222c-0.95-57.148-32.996-98.873-69.431-104.083    c-0.999-0.143,10.566,4.352,18.784,17.776c-5.167-0.812-10.071,0.371-13.441,3.741c-6.618,6.619-4.821,19.146,4.014,27.982    c8.835,8.835,21.363,10.633,27.982,4.014c1.375-1.375,2.382-3.008,3.043-4.808c8.049,17.254,12.772,37.848,12.88,59.987v0.482    L428.332,157.595L428.332,157.595z" style="opacity:0.8;fill:#A4BAE8;adobe-blending-mode:screen;enable-background:new    ;"/><g><ellipse cx="236.624" cy="146.756" rx="21.55" ry="9.714" style="opacity:0.3;fill:#855914;adobe-blending-mode:multiply;enable-background:new    ;"/></g><g><ellipse cx="480.675" cy="146.749" rx="21.454" ry="9.721" style="opacity:0.3;fill:#855914;adobe-blending-mode:multiply;enable-background:new    ;"/></g><g><ellipse cx="360.029" cy="178.713" rx="21.55" ry="9.721" style="opacity:0.3;fill:#855914;adobe-blending-mode:multiply;enable-background:new    ;"/></g><ellipse cx="237.783" cy="145.59" rx="20.391" ry="8.563" style="fill:#FFDD00;"/><ellipse cx="481.929" cy="145.59" rx="20.391" ry="8.563" style="fill:#FFDD00;"/><ellipse cx="361.187" cy="177.555" rx="20.391" ry="8.563" style="fill:#FFDD00;"/><g><path d="M118.685,162.833c0-14.473-11.318-25.791-25.791-25.791c14.473,0,25.791-11.318,25.791-25.791     c0,14.473,11.318,25.791,25.791,25.791C130.004,137.042,118.685,148.36,118.685,162.833z" style="fill:#FFEC5F;"/></g><g><path d="M191.6,399.523c0-9.752-7.627-17.379-17.379-17.379c9.752,0,17.379-7.627,17.379-17.379     c0,9.752,7.627,17.379,17.379,17.379C199.227,382.144,191.6,389.771,191.6,399.523z" style="fill:#FFEC5F;"/></g><g><path d="M464.473,322.097c0-17.75-13.881-31.631-31.631-31.631c17.75,0,31.631-13.881,31.631-31.631     c0,17.75,13.881,31.631,31.631,31.631C478.354,290.466,464.473,304.347,464.473,322.097z" style="fill:#FFEC5F;"/></g></g></g></svg>