<?xml version="1.0" ?><svg viewBox="0 0 60 60" xmlns="http://www.w3.org/2000/svg"><defs><style>.a{fill:#494cb4;}.b{fill:#f2562f;}.c{fill:#fce001;}.d{fill:#fff;}</style></defs><title/><path class="a" d="M60,30A29.98629,29.98629,0,0,1,31.5,59.96c-.49.03-1,.04-1.5.04s-1.01-.01-1.5-.04A30.01589,30.01589,0,0,1,0,30a30,30,0,0,1,60,0Z"/><path class="b" d="M56.25751,7.66663a1.003,1.003,0,0,1-.24558,1.39273L30.61822,26.84023A7,7,0,1,1,22.58815,15.3721L41.42865,2.17984a1,1,0,1,1,1.14715,1.6383L35.20343,8.98033a1,1,0,1,0,1.14715,1.6383L47.81871,2.58857a1,1,0,1,1,1.14715,1.6383L40.77435,9.96264a1,1,0,0,0,1.14715,1.6383l6.55322-4.58861a1,1,0,1,1,1.14715,1.6383L40.61119,14.96a1,1,0,0,0,1.14715,1.6383L54.86478,7.42106A1.003,1.003,0,0,1,56.25751,7.66663Z"/><path class="c" d="M38.00594,13.85445l-6.16849,4.31922c-.0972-.173-.20316-.343-.31935-.509s-.23975-.32367-.36905-.47417l2.89188-2.02492a.5.5,0,1,0-.57358-.81915l-3.04922,2.13509a5.95647,5.95647,0,0,0-1.0754-.71157l5.0748-3.55342a.5.5,0,1,0-.57358-.81915l-5.61737,3.93333a6.03039,6.03039,0,0,0-1.77664-.22115l2.60985-1.82743a.5.5,0,0,0-.57358-.81915l-4.50534,3.15467-.40958.28679-.40958.28679a6,6,0,0,0,6.88292,9.82982l6.14364-4.30182a.5.5,0,1,0-.57358-.81915l-3.429,2.401a6.03039,6.03039,0,0,0,.39983-1.74513l4.79822-3.35975a.5.5,0,1,0-.57358-.81915l-4.25565,2.97984a5.95647,5.95647,0,0,0-.30085-1.25392l6.32583-4.42939a.5.5,0,1,0-.57358-.81915Z"/><path class="b" d="M36.40522,33.36147a.33983.33983,0,0,1-.08321.4719L27.71791,39.858A2.37179,2.37179,0,1,1,24.9971,35.9723l6.38368-4.4699a.33883.33883,0,1,1,.38869.5551l-2.498,1.74909a.33883.33883,0,0,0,.38869.5551l3.88572-2.72081a.33883.33883,0,1,1,.38869.5551l-2.77552,1.94344a.33883.33883,0,1,0,.38869.5551l2.22041-1.55475a.33883.33883,0,0,1,.38869.5551l-3.05307,2.13778a.33883.33883,0,1,0,.38869.5551l4.44082-3.1095A.33983.33983,0,0,1,36.40522,33.36147Z"/><path class="c" d="M30.22108,35.45808,28.131,36.92155c-.03294-.05861-.06884-.11623-.10821-.17245s-.08123-.10967-.125-.16066l.97985-.6861a.16941.16941,0,1,0-.19434-.27755l-1.03316.72343a2.01822,2.01822,0,0,0-.36438-.2411l1.71948-1.204a.16941.16941,0,1,0-.19434-.27755l-1.90332,1.33272a2.04327,2.04327,0,0,0-.602-.07493l.88429-.61919a.16941.16941,0,0,0-.19434-.27755L25.469,36.05551l-.13878.09717-.13878.09717a2.033,2.033,0,0,0,2.33212,3.33062l2.08164-1.45758a.16941.16941,0,1,0-.19434-.27755l-1.16184.81353a2.04326,2.04326,0,0,0,.13547-.5913l1.62577-1.13838a.16941.16941,0,0,0-.19434-.27755L28.374,37.66129a2.01822,2.01822,0,0,0-.10194-.42486l2.14337-1.5008a.16941.16941,0,0,0-.19434-.27755Z"/><path class="b" d="M57.48776,31.71482a.597.597,0,0,1-.14618.829L42.22627,43.12767a4.16667,4.16667,0,1,1-4.7798-6.82627l11.21458-7.85253a.59524.59524,0,0,1,.68283.97518l-4.38831,3.07273a.59524.59524,0,0,0,.68283.97518l6.82627-4.7798a.59524.59524,0,0,1,.68283.97518l-4.87591,3.41415a.59524.59524,0,1,0,.68283.97518l3.90072-2.73132a.59524.59524,0,0,1,.68283.97518l-5.3635,3.75556a.59524.59524,0,1,0,.68283.97518l7.80145-5.46263A.597.597,0,0,1,57.48776,31.71482Z"/><path class="c" d="M46.62373,35.398,42.952,37.969c-.05786-.103-.12093-.20418-.19009-.303s-.14271-.19266-.21967-.28225L44.2636,36.1785a.29762.29762,0,1,0-.34141-.48759l-1.815,1.27089a3.54552,3.54552,0,0,0-.64012-.42355l3.02072-2.11513a.29762.29762,0,1,0-.34141-.48759l-3.34367,2.34127a3.58952,3.58952,0,0,0-1.05752-.13164l1.55348-1.08776a.29762.29762,0,0,0-.34141-.48759l-2.68175,1.87778-.2438.17071-.2438.17071a3.57143,3.57143,0,0,0,4.097,5.85109l3.65693-2.56061a.29762.29762,0,1,0-.34141-.48759L43.1593,41.02106a3.58952,3.58952,0,0,0,.238-1.03877l2.85608-1.99985a.29762.29762,0,0,0-.34141-.48759l-2.53313,1.77371a3.54552,3.54552,0,0,0-.17908-.74638l3.76537-2.63654a.29762.29762,0,1,0-.34141-.48759Z"/><path class="d" d="M5.85581,28.309l1.18682.65063a.25.25,0,0,0,.23264.00406l1.2088-.60882-.252,1.32979a.25.25,0,0,0,.068.2225l.95256.9615L7.91,31.03988a.25.25,0,0,0-.19059.13345L7.09934,32.3764l-.57772-1.224a.25.25,0,0,0-.18582-.14L5,30.79443l.98554-.92767a.25.25,0,0,0,.07575-.22Z"/><path class="d" d="M51.009,17.87347l.95435.02428a.17634.17634,0,0,0,.14716-.07265l.561-.7724.27182.91514a.17634.17634,0,0,0,.11457.1175l.908.29489-.78635.54131a.17634.17634,0,0,0-.07635.14527l.00012.95465-.75781-.58059a.17634.17634,0,0,0-.16175-.02772l-.90789.29512.318-.90013a.17634.17634,0,0,0-.02362-.1624Z"/><path class="d" d="M19.09237,52.00156l1.18682.65063a.25.25,0,0,0,.23264.00406l1.2088-.60882-.252,1.32979a.25.25,0,0,0,.068.2225l.95256.9615-1.34259.17122a.25.25,0,0,0-.19059.13345L20.3359,56.069l-.57772-1.224a.25.25,0,0,0-.18582-.14l-1.3358-.218.98554-.92767a.25.25,0,0,0,.07575-.22Z"/><polygon class="d" points="16.597 29.366 18.357 30.314 19.12 28.466 19.695 30.381 21.541 29.614 20.593 31.374 22.44 32.138 20.526 32.712 21.293 34.558 19.533 33.61 18.769 35.458 18.195 33.543 16.349 34.31 17.297 32.55 15.449 31.787 17.364 31.212 16.597 29.366"/><polygon class="d" points="11.287 42.818 12.355 43.347 13.54 43.215 13.011 44.284 13.143 45.469 12.074 44.94 10.889 45.071 11.418 44.003 11.287 42.818"/><polygon class="d" points="11.148 18.211 12.469 18.865 13.933 18.703 13.28 20.023 13.442 21.488 12.121 20.835 10.657 20.997 11.31 19.676 11.148 18.211"/><polygon class="d" points="23.612 3.705 24.602 4.195 25.701 4.074 25.211 5.064 25.333 6.163 24.342 5.673 23.243 5.794 23.734 4.804 23.612 3.705"/><polygon class="d" points="41.045 50.242 41.764 51.082 42.823 51.4 41.983 52.119 41.664 53.178 40.945 52.338 39.887 52.019 40.727 51.3 41.045 50.242"/><polygon class="d" points="35.223 44 35.942 44.839 37 45.158 36.161 45.877 35.842 46.935 35.123 46.096 34.065 45.777 34.904 45.058 35.223 44"/><polygon class="d" points="44.547 26.471 45 27 45.667 27.201 45.138 27.654 44.937 28.32 44.484 27.792 43.818 27.591 44.346 27.138 44.547 26.471"/><polygon class="d" points="52.881 43.151 53.333 43.68 54 43.881 53.471 44.333 53.27 45 52.818 44.471 52.151 44.27 52.68 43.818 52.881 43.151"/></svg>