<?xml version="1.0" standalone="no"?>
<!DOCTYPE svg PUBLIC "-//W3C//DTD SVG 20010904//EN"
 "http://www.w3.org/TR/2001/REC-SVG-20010904/DTD/svg10.dtd">
<svg version="1.0" xmlns="http://www.w3.org/2000/svg"
 width="133.000000pt" height="133.000000pt" viewBox="0 0 133.000000 133.000000"
 preserveAspectRatio="xMidYMid meet">
<metadata>
Created by potrace 1.11, written by Peter Selinger 2001-2013
</metadata>
<g transform="translate(0.000000,133.000000) scale(0.100000,-0.100000)"
fill="#000000" stroke="none">
<path d="M194 1319 c-59 -17 -126 -71 -158 -129 l-31 -55 0 -470 0 -470 30
-54 c16 -29 45 -66 64 -82 72 -59 83 -60 587 -57 l459 3 47 27 c25 16 60 45
78 65 58 71 60 92 60 573 0 503 0 502 -82 582 -80 78 -83 78 -587 77 -240 0
-450 -5 -467 -10z m436 -298 l37 -43 22 31 c45 63 109 76 211 41 110 -37 224
-120 282 -205 12 -16 0 -6 -26 23 -47 52 -133 118 -142 109 -2 -2 12 -20 33
-38 95 -86 152 -193 160 -302 9 -110 -39 -201 -131 -250 -33 -17 -58 -22 -126
-22 -75 0 -93 4 -154 32 -37 18 -72 30 -77 27 -5 -3 -9 2 -9 10 0 39 -107 44
-117 5 -3 -10 -11 -15 -18 -13 -7 3 -45 -5 -84 -16 -244 -74 -428 77 -365 299
22 79 75 162 143 224 29 26 48 47 43 47 -14 0 -83 -53 -131 -101 -24 -24 -39
-35 -33 -24 18 34 103 109 165 144 93 53 154 72 221 68 56 -3 62 -6 96 -46z"/>
<path d="M362 849 c-88 -44 -138 -145 -111 -222 17 -49 52 -77 107 -84 42 -6
102 11 102 29 0 5 5 6 12 2 6 -4 8 -3 5 3 -4 6 4 35 17 64 40 88 39 158 -3
200 -36 35 -69 37 -129 8z"/>
<path d="M847 849 c-22 -13 -47 -68 -47 -102 0 -39 28 -122 56 -163 15 -21 19
-32 10 -25 -9 8 -19 11 -23 8 -8 -9 76 -47 105 -47 40 0 91 28 112 62 63 103
-24 265 -147 275 -26 2 -56 -2 -66 -8z"/>
<path d="M1088 531 c-27 -38 -128 -49 -240 -26 -42 8 -34 -11 12 -29 85 -34
195 -10 235 51 19 28 12 31 -7 4z"/>
<path d="M250 525 c35 -42 145 -58 205 -30 28 13 24 14 -56 10 -70 -4 -92 -1
-123 14 -22 12 -33 14 -26 6z"/>
<path d="M447 468 c-22 -14 -2 -16 28 -3 26 11 27 13 7 12 -12 -1 -28 -5 -35
-9z"/>
<path d="M794 471 c12 -19 101 -41 160 -40 l61 2 -60 7 c-33 4 -71 12 -85 17
-43 17 -82 24 -76 14z"/>
<path d="M375 460 c-16 -7 -12 -9 17 -8 20 1 34 6 32 10 -6 10 -23 9 -49 -2z"/>
<path d="M890 380 c0 -5 5 -10 11 -10 5 0 7 5 4 10 -3 6 -8 10 -11 10 -2 0 -4
-4 -4 -10z"/>
</g>
</svg>
