<?xml version="1.0" encoding="UTF-8" standalone="no"?>
<!-- Created with Inkscape (http://www.inkscape.org/) -->

<svg
   xmlns:dc="http://purl.org/dc/elements/1.1/"
   xmlns:cc="http://creativecommons.org/ns#"
   xmlns:rdf="http://www.w3.org/1999/02/22-rdf-syntax-ns#"
   xmlns:svg="http://www.w3.org/2000/svg"
   xmlns="http://www.w3.org/2000/svg"
   xmlns:sodipodi="http://sodipodi.sourceforge.net/DTD/sodipodi-0.dtd"
   xmlns:inkscape="http://www.inkscape.org/namespaces/inkscape"
   width="166.436"
   height="166.436"
   viewBox="0 0 166.436 166.436"
   id="svg5602"
   version="1.1"
   inkscape:version="0.91 r13725"
   sodipodi:docname="IntellEditLogo.svg"
   inkscape:export-filename="C:\GITHUB_UNIVERSITY\intelledit-web\img\IntellEditLogo.png"
   inkscape:export-xdpi="300.11591"
   inkscape:export-ydpi="300.11591">
  <defs
     id="defs5604">
    <linearGradient
       gradientTransform="matrix(1.3002797,0,0,-1.3002797,772.45146,1709.0881)"
       gradientUnits="userSpaceOnUse"
       id="SVGID_1_"
       x1="-577.51221"
       x2="-482.48792"
       y1="501.14551"
       y2="636.85437">
      <stop
         offset="0"
         style="stop-color:#f3c900;stop-opacity:0"
         id="stop4" />
      <stop
         offset="1"
         style="stop-color:#a14d7d;stop-opacity:1"
         id="stop6" />
    </linearGradient>
    <filter
       inkscape:collect="always"
       style="color-interpolation-filters:sRGB"
       id="filter4224"
       x="-0.0076362589"
       width="1.0152725"
       y="-0.028001408"
       height="1.0560028">
      <feGaussianBlur
         inkscape:collect="always"
         stdDeviation="0.39476152"
         id="feGaussianBlur4226" />
    </filter>
  </defs>
  <sodipodi:namedview
     id="base"
     pagecolor="#ffffff"
     bordercolor="#666666"
     borderopacity="1.0"
     inkscape:pageopacity="0.0"
     inkscape:pageshadow="2"
     inkscape:zoom="3.959798"
     inkscape:cx="72.680747"
     inkscape:cy="71.20648"
     inkscape:document-units="px"
     inkscape:current-layer="layer1"
     showgrid="false"
     units="px"
     inkscape:window-width="1858"
     inkscape:window-height="1178"
     inkscape:window-x="54"
     inkscape:window-y="-8"
     inkscape:window-maximized="1"
     inkscape:snap-text-baseline="false" />
  <metadata
     id="metadata5607">
    <rdf:RDF>
      <cc:Work
         rdf:about="">
        <dc:format>image/svg+xml</dc:format>
        <dc:type
           rdf:resource="http://purl.org/dc/dcmitype/StillImage" />
        <dc:title />
      </cc:Work>
    </rdf:RDF>
  </metadata>
  <g
     inkscape:label="Ebene 1"
     inkscape:groupmode="layer"
     id="layer1"
     transform="translate(0,-885.92627)">
    <path
       inkscape:connector-curvature="0"
       style="fill:url(#SVGID_1_)"
       d="m 166.52108,1031.6422 c 0,11.4425 -9.36201,20.8044 -20.80448,20.8044 l -124.826833,0 c -11.4424601,0 -20.80448006,-9.3619 -20.80448006,-20.8044 l 0,-124.82681 c 0,-11.4425 9.36201996,-20.8045 20.80448006,-20.8045 l 124.826833,0 c 11.44247,0 20.80448,9.362 20.80448,20.8045 l 0,124.82681 z"
       id="path8-6" />
    <g
       id="Livello_26-6"
       transform="translate(-102.69164,1094.6114)">
      <path
         d="m 177.30183,-110.46863 c 0,-0.562 0.448,-1.013 1.008,-1.013 l 14.525,0 c 0.561,0 1.012,0.45 1.012,1.013 0,0.561 -0.451,1.014 -1.012,1.014 l -14.525,0 c -0.558,-0.001 -1.008,-0.454 -1.008,-1.014 m 58.408,-6.443 -100.688,0 0,-67.445 100.688,0 0,67.445 0,0 z m 20.021,6.939 c 0,-1.5 -1.213,-2.716 -2.707,-2.716 l 0,-0.193 -14.363,0 c 0.732,-0.328 1.246,-1.063 1.246,-1.923 l 0,-71.664 c 0,-1.164 -0.938,-2.107 -2.1,-2.107 l -104.884,0 c -1.155,0 -2.097,0.943 -2.097,2.107 l 0,71.663 c 0,0.855 0.513,1.595 1.245,1.923 l -13.95,0 0,0.188 c -1.494,-10e-4 -2.706,1.217 -2.706,2.719 0,1.502 1.212,2.72 2.706,2.72 l 134.903,0 c 1.496,-0.002 2.707,-1.217 2.707,-2.717"
         id="path3344-1"
         inkscape:connector-curvature="0" />
    </g>
    <path
       style="fill:#f5cf49;fill-opacity:1;stroke:#37474f;stroke-opacity:1"
       inkscape:connector-curvature="0"
       d="m 36.899017,936.23453 c -1.42163,0 -2.00314,-1.00744 -1.29235,-2.23842 l 4.86134,-8.41993 c 0.71077,-1.23132 1.87395,-1.23132 2.58474,0 l 4.86137,8.41993 c 0.71078,1.23132 0.12934,2.23842 -1.29244,2.23842 l -9.72266,0 z"
       id="path15-8-5-7" />
    <path
       style="fill:#e74c3c;stroke:#37474f;stroke-opacity:1;stroke-width:1;stroke-miterlimit:4;stroke-dasharray:none"
       inkscape:connector-curvature="0"
       d="m 48.139647,959.18815 c 0,3.3697 -2.73152,6.1012 -6.1012,6.1012 -3.36957,0 -6.1012,-2.7315 -6.1012,-6.1012 0,-3.36957 2.73163,-6.1012 6.1012,-6.1012 3.36968,0 6.1012,2.73163 6.1012,6.1012 z"
       id="path8-3-9-3" />
    <path
       style="fill:#37474f;fill-opacity:1"
       inkscape:connector-curvature="0"
       d="m 39.018547,956.99172 2.1572,2.19643 -2.1572,2.13542 0.86282,0.85417 2.15708,-2.13542 2.15739,2.13542 0.8627,-0.85417 -2.15737,-2.13542 2.15737,-2.19643 -0.8627,-0.85417 -2.15739,2.13542 -2.15708,-2.13542 -0.86282,0.85417 z"
       id="path12-06-8-3" />
    <path
       inkscape:connector-curvature="0"
       style="fill:#37474f;fill-opacity:1"
       d="m 104.05053,920.35755 -58.132403,0 0,-3.108 58.132403,0 0,3.108 z"
       id="path19-6-5-8" />
    <path
       inkscape:connector-curvature="0"
       style="fill:#37474f;fill-opacity:1"
       d="m 77.093657,930.57761 -19.37619,0 0,-3.108 19.37619,0 0,3.108 z"
       id="path21-7-5-9" />
    <path
       inkscape:connector-curvature="0"
       style="fill:#37474f;fill-opacity:1"
       d="m 86.160467,940.79766 -15.07046,0 0,-3.108 15.07046,0 0,3.108 z"
       id="path23-5-5-1" />
    <path
       inkscape:connector-curvature="0"
       style="fill:#37474f;fill-opacity:1"
       d="m 125.286,951.01743 -58.129063,0 0,-3.108 58.129063,0 0,3.108 z"
       id="path25-3-8-4" />
    <path
       inkscape:connector-curvature="0"
       style="fill:#37474f;fill-opacity:1"
       d="m 73.575447,961.23721 -15.07137,0 0,-3.108 15.07137,0 0,3.108 z"
       id="path27-8-5-2" />
    <path
       inkscape:connector-curvature="0"
       style="fill:#37474f;fill-opacity:1"
       d="m 101.23139,971.45725 -50.593523,0 0,-3.108 50.593523,0 0,3.108 z"
       id="path29-0-2-0" />
    <g
       id="g17-8-9-5"
       transform="matrix(0.32309765,0,0,0.32309765,31.421217,920.72585)">
      <path
         style="fill:#37474f;fill-opacity:1"
         inkscape:connector-curvature="0"
         d="m 34,32 c 0,1.105 -0.895,2 -2,2 l 0,0 c -1.105,0 -2,-0.895 -2,-2 l 0,-8 c 0,-1.105 0.895,-2 2,-2 l 0,0 c 1.105,0 2,0.895 2,2 l 0,8 z"
         id="path19-4-2-3-5" />
    </g>
    <g
       id="g21-7-1-4"
       transform="matrix(0.32309765,0,0,0.32309765,31.421217,920.72585)">
      <path
         style="fill:#37474f;fill-opacity:1"
         inkscape:connector-curvature="0"
         d="m 34,40 c 0,1.105 -0.895,2 -2,2 l 0,0 c -1.105,0 -2,-0.895 -2,-2 l 0,0 c 0,-1.105 0.895,-2 2,-2 l 0,0 c 1.105,0 2,0.895 2,2 l 0,0 z"
         id="path23-7-9-0-94" />
    </g>
    <ellipse
       style="fill:#ffd766;fill-opacity:1"
       id="path5110-2-0-8"
       cx="69.119621"
       cy="944.26978"
       rx="10.924996"
       ry="10.83319" />
    <path
       style="fill:#000000;fill-rule:evenodd;stroke:none;stroke-width:1"
       inkscape:connector-curvature="0"
       d="m 79.121307,951.37071 c 1.42561,-2.0446 2.26164,-4.5309 2.26164,-7.2123 0,-6.9726 -5.65232,-12.6249 -12.6248,-12.6249 -6.97247,0 -12.6248,5.6523 -12.6248,12.6249 0,6.9724 5.65233,12.6247 12.6248,12.6247 2.68114,0 5.16707,-0.8358 7.21146,-2.2611 l 7.5e-4,-7e-4 9.36246,9.3626 c 0.1736,0.1735 0.44972,0.1788 0.62794,6e-4 l 2.52349,-2.5235 c 0.17322,-0.1732 0.16517,-0.4621 -7e-4,-0.628 l -9.36227,-9.3623 z m -10.36316,2.4418 c 5.33191,0 9.65426,-4.3223 9.65426,-9.6541 0,-5.3321 -4.32235,-9.6543 -9.65426,-9.6543 -5.3319,0 -9.65426,4.3222 -9.65426,9.6543 0,5.3318 4.32236,9.6541 9.65426,9.6541 z"
       id="common-search-lookup-glyph-5-2-2-5" />
    <path
       inkscape:connector-curvature="0"
       class="st0"
       d="m 71.182217,944.28791 -1.11363,-0.079 c -0.0924,-0.4226 -0.25971,-0.8187 -0.4842,-1.1709 l 0.7351,-0.8408 c 0.0792,-0.079 0.0792,-0.2112 0,-0.2948 l -0.69108,-0.6911 c -0.0792,-0.079 -0.21128,-0.079 -0.29491,0 l -0.84073,0.735 c -0.35214,-0.2244 -0.74829,-0.3917 -1.17085,-0.4841 l -0.0792,-1.1137 c 0,-0.1144 -0.0924,-0.2069 -0.20688,-0.2069 l -0.97719,0 c -0.11444,0 -0.20688,0.092 -0.20688,0.2069 l -0.0792,1.1137 c -0.42257,0.092 -0.81873,0.2597 -1.17087,0.4841 l -0.84072,-0.735 c -0.0792,-0.079 -0.21128,-0.079 -0.29492,0 l -0.69106,0.6911 c -0.0792,0.079 -0.0792,0.2113 0,0.2948 l 0.73508,0.8408 c -0.22449,0.3522 -0.39175,0.7483 -0.48419,1.1709 l -1.11364,0.079 c -0.11444,0 -0.20688,0.092 -0.20688,0.2068 l 0,0.9772 c 0,0.1145 0.0924,0.2069 0.20688,0.2069 l 1.11364,0.079 c 0.0924,0.4226 0.2597,0.8188 0.48419,1.1709 l -0.73508,0.8407 c -0.0792,0.079 -0.0792,0.2113 0,0.2949 l 0.69106,0.691 c 0.0792,0.079 0.21129,0.079 0.29492,0 l 0.84072,-0.735 c 0.35214,0.2245 0.7483,0.3917 1.17087,0.4842 l 0.0792,1.1136 c 0,0.1144 0.0924,0.2069 0.20688,0.2069 l 0.97719,0 c 0.11444,0 0.20688,-0.092 0.20688,-0.2069 l 0.0792,-1.1136 c 0.42256,-0.092 0.81871,-0.2597 1.17085,-0.4842 l 0.84073,0.735 c 0.0792,0.079 0.21129,0.079 0.29491,0 l 0.69108,-0.691 c 0.0792,-0.079 0.0792,-0.2113 0,-0.2949 l -0.7351,-0.8407 c 0.22449,-0.3521 0.39176,-0.7483 0.4842,-1.1709 l 1.11363,-0.079 c 0.11445,0 0.20689,-0.092 0.20689,-0.2069 l 0,-0.9772 c 0,-0.1144 -0.0924,-0.2068 -0.20689,-0.2068 z m -4.63501,2.6851 c -1.10043,0 -1.98957,-0.8893 -1.98957,-1.9896 0,-1.1006 0.88914,-1.9896 1.98957,-1.9896 1.10043,0 1.98958,0.889 1.98958,1.9896 0,1.0959 -0.88915,1.9896 -1.98958,1.9896 z"
       id="path7-86-5-1-3" />
    <path
       inkscape:connector-curvature="0"
       class="st0"
       d="m 76.389457,940.27791 -0.69107,0.242 c -0.16727,-0.2288 -0.36974,-0.4268 -0.59424,-0.5766 l 0.2245,-0.6999 c 0.0264,-0.07 -0.005,-0.1495 -0.0748,-0.1759 l -0.59424,-0.2377 c -0.0705,-0.026 -0.14966,0.01 -0.17607,0.075 l -0.31692,0.6603 c -0.27291,-0.044 -0.55022,-0.044 -0.83193,0.014 l -0.33453,-0.6515 c -0.0308,-0.07 -0.11004,-0.1012 -0.18047,-0.07 l -0.58983,0.2553 c -0.0704,0.03 -0.10124,0.11 -0.0704,0.1804 l 0.2421,0.6911 c -0.22889,0.1673 -0.42697,0.3698 -0.57663,0.5942 l -0.69987,-0.2244 c -0.0704,-0.026 -0.14966,0.01 -0.17607,0.075 l -0.23769,0.5941 c -0.0264,0.07 0.005,0.1498 0.0748,0.1762 l 0.66028,0.3169 c -0.044,0.2728 -0.044,0.5501 0.0132,0.8319 l -0.65145,0.3345 c -0.0704,0.03 -0.10125,0.1101 -0.0704,0.1805 l 0.25529,0.5899 c 0.0308,0.07 0.11004,0.1011 0.18047,0.07 l 0.69107,-0.242 c 0.16727,0.2288 0.36975,0.4269 0.59423,0.5766 l -0.22448,0.6999 c -0.0264,0.07 0.004,0.1496 0.0748,0.176 l 0.59423,0.2377 c 0.0704,0.026 0.14966,-0.01 0.17607,-0.075 l 0.31693,-0.6603 c 0.2729,0.044 0.55021,0.044 0.83192,-0.014 l 0.33453,0.6515 c 0.0308,0.07 0.11004,0.1012 0.18047,0.07 l 0.58983,-0.2554 c 0.0705,-0.03 0.10124,-0.11 0.0705,-0.1804 l -0.2421,-0.6911 c 0.2289,-0.1672 0.42697,-0.3698 0.57663,-0.5942 l 0.69988,0.2244 c 0.0704,0.027 0.14965,-0.01 0.17606,-0.075 l 0.2377,-0.5942 c 0.0264,-0.07 -0.005,-0.1497 -0.0748,-0.1761 l -0.66026,-0.3169 c 0.044,-0.2729 0.044,-0.5502 -0.0132,-0.8319 l 0.65145,-0.3345 c 0.0705,-0.03 0.10124,-0.1101 0.0705,-0.1805 l -0.2553,-0.5899 c -0.0352,-0.07 -0.11444,-0.1011 -0.18047,-0.07 z m -2.09522,2.8215 c -0.66026,0.2861 -1.43056,-0.017 -1.71667,-0.6823 -0.28611,-0.6646 0.0176,-1.4306 0.68226,-1.7166 0.66026,-0.2861 1.43056,0.018 1.71668,0.6823 0.28611,0.6647 -0.022,1.4304 -0.68227,1.7166 z"
       id="path9-1-3-5-4-6" />
    <path
       inkscape:connector-curvature="0"
       style="fill:#ffd766"
       d="m 114.01507,955.2512 c 0,0 0,-1.26163 0,-1.26163 0.37849,-1.26162 1.13547,-3.0279 2.77558,-4.66801 3.65871,-3.65871 3.65871,-8.95754 0,-12.74242 -1.64011,-1.76627 -4.0372,-2.77557 -6.43428,-2.77557 l 0,0 c -2.39709,0 -4.66801,1.0093 -6.43429,2.77557 -3.6587,3.78488 -3.6587,9.08371 0,12.74242 1.64012,1.64011 2.39709,4.66801 2.77558,5.92964"
       id="path9-01" />
    <path
       inkscape:connector-curvature="0"
       style="fill:none;stroke:#000000;stroke-width:2.52324986;stroke-linecap:round;stroke-linejoin:round;stroke-miterlimit:10;stroke-opacity:1"
       d="m 114.01507,953.98957 c 0,0 0,0 0,0 0.37849,-1.26162 1.0093,-3.0279 2.64942,-4.66801 3.65871,-3.65871 3.65871,-8.95754 0,-12.74242 -1.64012,-1.76627 -4.0372,-2.77557 -6.43428,-2.77557 l 0,0 c -2.39709,0 -4.66801,1.0093 -6.43429,2.77557 -3.6587,3.78488 -3.6587,9.08371 0,12.74242 1.64011,1.64011 2.39709,3.40639 2.77558,4.66801"
       stroke-miterlimit="10"
       id="path11-6" />
    <line
       style="fill:none;stroke:#000000;stroke-width:2.52324986;stroke-linecap:round;stroke-linejoin:round;stroke-miterlimit:10;stroke-opacity:1"
       stroke-miterlimit="10"
       x1="105.68838"
       x2="114.51977"
       y1="956.00812"
       y2="956.00812"
       id="line13-6" />
    <line
       style="fill:none;stroke:#000000;stroke-width:2.52324986;stroke-linecap:round;stroke-linejoin:round;stroke-miterlimit:10;stroke-opacity:1"
       stroke-miterlimit="10"
       x1="106.95004"
       x2="113.25815"
       y1="959.79303"
       y2="959.79303"
       id="line15-1" />
    <line
       style="fill:none;stroke:#000000;stroke-width:2.52324986;stroke-linecap:round;stroke-linejoin:round;stroke-miterlimit:10;stroke-opacity:1"
       stroke-miterlimit="10"
       x1="108.21166"
       x2="111.99651"
       y1="962.31628"
       y2="962.31628"
       id="line17-3" />
    <line
       style="fill:none;stroke:#000000;stroke-width:2.52324986;stroke-linecap:round;stroke-linejoin:round;stroke-miterlimit:10;stroke-opacity:1"
       stroke-miterlimit="10"
       x1="109.47325"
       x2="109.47325"
       y1="930.77563"
       y2="925.72913"
       id="line19-03" />
    <line
       style="fill:none;stroke:#000000;stroke-width:2.52324986;stroke-linecap:round;stroke-linejoin:round;stroke-miterlimit:10;stroke-opacity:1"
       stroke-miterlimit="10"
       x1="123.35116"
       x2="128.39763"
       y1="943.39191"
       y2="943.39191"
       id="line21-3" />
    <line
       style="fill:none;stroke:#000000;stroke-width:2.52324986;stroke-linecap:round;stroke-linejoin:round;stroke-miterlimit:10;stroke-opacity:1"
       stroke-miterlimit="10"
       x1="93.072136"
       x2="98.118614"
       y1="943.39191"
       y2="943.39191"
       id="line23-1" />
    <line
       style="fill:none;stroke:#000000;stroke-width:2.52324986;stroke-linecap:round;stroke-linejoin:round;stroke-miterlimit:10;stroke-opacity:1"
       stroke-miterlimit="10"
       x1="120.44942"
       x2="124.23428"
       y1="934.18201"
       y2="930.39716"
       id="line25-0" />
    <line
       style="fill:none;stroke:#000000;stroke-width:2.52324986;stroke-linecap:round;stroke-linejoin:round;stroke-miterlimit:10;stroke-opacity:1"
       stroke-miterlimit="10"
       x1="100.51571"
       x2="96.730827"
       y1="934.18201"
       y2="930.39716"
       id="line27-9" />
    <polyline
       transform="matrix(1.2616249,0,0,1.2616249,65.316367,910.58968)"
       style="fill:none;stroke:#000000;stroke-width:2;stroke-linecap:round;stroke-linejoin:round;stroke-miterlimit:10;stroke-opacity:1"
       points="  35.7,25.3 34.1,28.2 37.4,28.2 35.7,31.1 "
       stroke-miterlimit="10"
       id="polyline29-2" />
    <text
       xml:space="preserve"
       style="font-style:normal;font-weight:normal;font-size:40px;line-height:125%;font-family:sans-serif;letter-spacing:0px;word-spacing:0px;fill:#000000;fill-opacity:1;stroke:none;stroke-width:1px;stroke-linecap:butt;stroke-linejoin:miter;stroke-opacity:1;filter:url(#filter4224)"
       x="17.636217"
       y="1030.4878"
       id="text5552"
       sodipodi:linespacing="125%"><tspan
         sodipodi:role="line"
         id="tspan5554"
         x="17.636217"
         y="1030.4878"
         style="font-style:normal;font-variant:normal;font-weight:normal;font-stretch:normal;font-family:'Helvetica Neue';-inkscape-font-specification:'Helvetica Neue'">Intell<tspan
   style="font-size:25px"
   id="tspan5560"
   dy="5">Edit</tspan></tspan></text>
  </g>
</svg>
